<?xml version="1.0" encoding="UTF-8" standalone="no"?><svg xmlns:svg="http://www.w3.org/2000/svg" xmlns="http://www.w3.org/2000/svg" version="1.1" style="overflow:visible" viewBox="-250 -250 500 500" height="2000px" width="2000px"><rect fill-opacity="0" fill="rgb(0,0,0)" height="500" width="500" y="-250" x="-250" /><svg version="1.1" y="-250" x="-249" viewBox="-250 -250 500 500" height="500" width="500" style="overflow:visible"><g style="fill:#ffffff;stroke-linejoin:round"><path style="fill:none;stroke:#ef2d2d;stroke-width:14;stroke-linecap:butt;stroke-linejoin:round;stroke-opacity:1" d="m -87.571,-117.402 c -28.5783,19.0475 -88.2898,79.512 -47.2571,175.267 48.3568,112.847 116.301,102.483 190.014,77.5871 50.2642,-16.9766 113.137,-52.5012 98.7399,-156.672 -14.3247,-103.648 -152.528,-158.519 -243.704,-108.983 -61.0136,33.149099 -93.6135,159.378 -36.6759,221.725 59.0497,64.6595 217.706,97.5758 259.962,-14.0728 47.8924,-126.54 1.11029,-185.5 -60.8363,-216.348 -53.2011,-26.4925 -116.332,-7.7702 -160.242,21.4965 z" /></g></svg><svg version="1.1" y="105" x="-104" viewBox="0 0 500 500" height="500" width="500" style="overflow:visible"><g transform="matrix(0.79873873,-0.29071712,0.29071712,0.79873873,0,0)" style="fill:#ef2d2d;fill-opacity:1;stroke:#000000;stroke-width:0;stroke-linecap:round;stroke-linejoin:round;stroke-opacity:0"><g  aria-label="O"><path  d="m 78.6,2.8 c 40.6,0 68.2,-29.2 68.2,-78 0,-48.6 -27.6,-76.4 -68.2,-76.4 -40.6,0 -68.2,27.6 -68.2,76.4 0,48.8 27.6,78 68.2,78 z m 0,-30.8 C 59,-28 47,-46.2 47,-75.2 47,-104 59,-121 78.6,-121 c 19.6,0 31.8,17 31.8,45.8 0,29 -12.2,47.2 -31.8,47.2 z" /></g><g  aria-label="K"><path  d="M 177.2,0 H 213 v -39 l 16.2,-22 35,61 h 39.2 L 250,-89.2 295,-148.8 H 255.8 L 213.6,-90 H 213 v -58.8 h -35.8 z" /></g></g></svg></svg>